<svg xmlns="http://www.w3.org/2000/svg" xmlns:xlink="http://www.w3.org/1999/xlink" width="240" height="240" viewBox="0 0 240 240"><defs><clipPath id="a"><circle cx="79.5" cy="79.5" r="79.5" transform="translate(40.5 40.5)" fill="#337ca9"/></clipPath><linearGradient id="b" x1="0.742" y1="0.787" x2="0.311" y2="0.411" gradientUnits="objectBoundingBox"><stop offset="0" stop-color="#20669b" stop-opacity="0.659"/><stop offset="1" stop-color="#20669b"/></linearGradient><linearGradient id="c" x1="0.5" y1="-0.345" x2="0.5" y2="0.638" gradientUnits="objectBoundingBox"><stop offset="0" stop-color="#3fc7f4"/><stop offset="0.26" stop-color="#37c2f2"/><stop offset="1" stop-color="#5e82ac"/></linearGradient><linearGradient id="d" x1="0.5" y1="5.75" x2="0.5" y2="4.748" gradientUnits="objectBoundingBox"><stop offset="0" stop-color="#a73757"/><stop offset="0.78" stop-color="#d72027"/><stop offset="1" stop-color="#e02e43"/></linearGradient><clipPath id="f"><rect width="240" height="240"/></clipPath></defs><g id="e" clip-path="url(#f)"><path d="M3015.675,1717.232h0a80.4,80.4,0,0,1-24.479-27.959,79.9,79.9,0,0,1,4.469-82,80.237,80.237,0,0,1,35.2-28.984,79.893,79.893,0,0,1,75.868,7.376,80.233,80.233,0,0,1,28.985,35.2A79.5,79.5,0,0,1,3142,1652a80.038,80.038,0,0,1-33.674,65.229v-89.694h5.791v-23.163h-70.453v-15.441h-8.686v15.441h-2.9v-7.72H3023.4v7.72h-13.512v23.163h5.791v89.7Z" transform="translate(-2942 -1532)" fill="#337ca9"/><g clip-path="url(#a)"><g transform="translate(27.35 45.35)"><path d="M3070.88,1760.624l-43-43h104.232v-8.686h-5.791v-99.405h5.791v-23.162L3188.545,1642c.3,3.32.454,6.66.454,10a109.785,109.785,0,0,1-2.215,21.967,108.379,108.379,0,0,1-16.4,38.975,109.319,109.319,0,0,1-47.957,39.491,108.4,108.4,0,0,1-20.461,6.351A109.785,109.785,0,0,1,3080,1761Q3075.432,1761,3070.88,1760.624ZM3027.885,1717.628Zm0-108.091h5.79v5.79ZM3027.885,1609.536ZM3132.115,1586.373Zm-70.452,0V1571.33l.193-.4,15.441,15.441Zm-11.581,0v-7.6l.193-.316,2.7,2.7v5.211Z" transform="translate(-2987.35 -1559.351)" fill="url(#b)"/><path d="M-185.838,301H-46.863A23.107,23.107,0,0,1-23.7,324.163V463.138A23.107,23.107,0,0,1-46.863,486.3H-185.838A23.107,23.107,0,0,1-209,463.138V324.163A23.107,23.107,0,0,1-185.838,301Z" transform="translate(209 -301)" fill="#337ca9" opacity="0"/><path d="M-62.769,451.01V459.7H-167V451.01h5.791V351.6h92.65V451.01ZM-144.8,320.721h-8.686v10.616h8.686ZM-133.221,313h-8.686v16.407h8.686Z" transform="translate(207.534 -301.419)" fill="#fff"/><path d="M-143,406.709h23.162v23.162H-143Zm0-12.546h23.162V371H-143Zm34.744,11.581v18.337h5.791v5.791h-5.791v22.2h23.163V405.744ZM-85.094,371h-23.163v23.163h23.163Z" transform="translate(206.697 -303.443)" fill="url(#c)"/><path d="M-62.769,329H-167v23.163H-62.769Z" transform="translate(207.534 -301.977)" fill="url(#d)"/></g></g></g></svg>